<mxfile host="app.diagrams.net" modified="2022-07-01T20:26:44.762Z" agent="5.0 (X11; Linux x86_64) AppleWebKit/537.36 (KHTML, like Gecko) Chrome/102.0.0.0 Safari/537.36" etag="KCE9Cubl0skE7moANHOw" version="20.0.4" type="github">
  <diagram id="ppd3f7oC5xCHemfCn84l" name="Page-1">
    <mxGraphModel dx="572" dy="1982" grid="1" gridSize="10" guides="1" tooltips="1" connect="1" arrows="1" fold="1" page="1" pageScale="1" pageWidth="850" pageHeight="1100" math="0" shadow="0">
      <root>
        <mxCell id="0" />
        <mxCell id="1" parent="0" />
        <mxCell id="ah_-_uCRtWPQr3SFTx1z-22" value="" style="rounded=0;whiteSpace=wrap;html=1;fillColor=#ffe6cc;strokeColor=none;glass=0;opacity=50;" vertex="1" parent="1">
          <mxGeometry x="1060" y="400" width="640" height="435" as="geometry" />
        </mxCell>
        <mxCell id="ah_-_uCRtWPQr3SFTx1z-23" value="" style="rounded=0;whiteSpace=wrap;html=1;fillColor=#1ba1e2;strokeColor=none;glass=0;opacity=80;fontColor=#ffffff;" vertex="1" parent="1">
          <mxGeometry x="1350" y="90" width="60" height="595" as="geometry" />
        </mxCell>
        <mxCell id="ah_-_uCRtWPQr3SFTx1z-24" value="A" style="rounded=0;whiteSpace=wrap;html=1;fillColor=#1ba1e2;strokeColor=none;glass=0;opacity=80;fontColor=#ffffff;" vertex="1" parent="1">
          <mxGeometry x="1140" y="90" width="60" height="595" as="geometry" />
        </mxCell>
        <mxCell id="ah_-_uCRtWPQr3SFTx1z-26" value="C" style="rounded=0;whiteSpace=wrap;html=1;fillColor=#1ba1e2;strokeColor=none;glass=0;opacity=80;fontColor=#ffffff;" vertex="1" parent="1">
          <mxGeometry x="1560" y="90" width="60" height="595" as="geometry" />
        </mxCell>
        <mxCell id="ah_-_uCRtWPQr3SFTx1z-27" value="B" style="rounded=0;whiteSpace=wrap;html=1;fillColor=#1ba1e2;strokeColor=none;glass=0;opacity=80;fontColor=#ffffff;" vertex="1" parent="1">
          <mxGeometry x="1350" y="90" width="60" height="595" as="geometry" />
        </mxCell>
        <mxCell id="ah_-_uCRtWPQr3SFTx1z-29" value="" style="rounded=0;whiteSpace=wrap;html=1;fillColor=#0050ef;strokeColor=none;glass=0;opacity=50;fontColor=#ffffff;" vertex="1" parent="1">
          <mxGeometry x="1080" y="450" width="600" height="220" as="geometry" />
        </mxCell>
        <mxCell id="ah_-_uCRtWPQr3SFTx1z-30" value="" style="rounded=0;whiteSpace=wrap;html=1;fillColor=#fa6800;strokeColor=none;glass=0;opacity=50;fontColor=#000000;" vertex="1" parent="1">
          <mxGeometry x="1087.5" y="720" width="585" height="90" as="geometry" />
        </mxCell>
        <mxCell id="ah_-_uCRtWPQr3SFTx1z-31" value="" style="rounded=0;whiteSpace=wrap;html=1;fillColor=#ffff88;strokeColor=none;glass=0;" vertex="1" parent="1">
          <mxGeometry x="1100" y="468" width="30" height="312" as="geometry" />
        </mxCell>
        <mxCell id="ah_-_uCRtWPQr3SFTx1z-32" value="" style="rounded=0;whiteSpace=wrap;html=1;fillColor=#ffff88;strokeColor=none;glass=0;" vertex="1" parent="1">
          <mxGeometry x="1110" y="750" width="540" height="30" as="geometry" />
        </mxCell>
        <mxCell id="ah_-_uCRtWPQr3SFTx1z-33" value="" style="rounded=0;whiteSpace=wrap;html=1;fillColor=#ffff88;strokeColor=none;glass=0;" vertex="1" parent="1">
          <mxGeometry x="1630" y="468" width="30" height="312" as="geometry" />
        </mxCell>
        <mxCell id="ah_-_uCRtWPQr3SFTx1z-36" value="" style="rounded=0;whiteSpace=wrap;html=1;fillColor=#ffff88;strokeColor=none;glass=0;" vertex="1" parent="1">
          <mxGeometry x="1500" y="350" width="30" height="302" as="geometry" />
        </mxCell>
        <mxCell id="ah_-_uCRtWPQr3SFTx1z-38" value="" style="rounded=0;whiteSpace=wrap;html=1;fillColor=#fa6800;strokeColor=none;glass=0;opacity=50;fontColor=#000000;" vertex="1" parent="1">
          <mxGeometry x="1080" y="105" width="600" height="220" as="geometry" />
        </mxCell>
        <mxCell id="ah_-_uCRtWPQr3SFTx1z-40" value="" style="rounded=0;whiteSpace=wrap;html=1;fillColor=#ffff88;strokeColor=none;glass=0;" vertex="1" parent="1">
          <mxGeometry x="1630" y="120" width="30" height="250" as="geometry" />
        </mxCell>
        <mxCell id="ah_-_uCRtWPQr3SFTx1z-42" value="" style="rounded=0;whiteSpace=wrap;html=1;fillColor=#ffff88;strokeColor=none;glass=0;" vertex="1" parent="1">
          <mxGeometry x="1100" y="340" width="360" height="30" as="geometry" />
        </mxCell>
        <mxCell id="ah_-_uCRtWPQr3SFTx1z-43" value="" style="rounded=0;whiteSpace=wrap;html=1;fillColor=#ffff88;strokeColor=none;glass=0;" vertex="1" parent="1">
          <mxGeometry x="1100" y="120" width="30" height="250" as="geometry" />
        </mxCell>
        <mxCell id="ah_-_uCRtWPQr3SFTx1z-46" value="" style="rounded=0;whiteSpace=wrap;html=1;fillColor=#0050ef;strokeColor=none;glass=0;opacity=50;fontColor=#ffffff;" vertex="1" parent="1">
          <mxGeometry x="1087.5" y="-35" width="585" height="90" as="geometry" />
        </mxCell>
        <mxCell id="ah_-_uCRtWPQr3SFTx1z-47" value="" style="rounded=0;whiteSpace=wrap;html=1;fillColor=#ffff88;strokeColor=none;glass=0;" vertex="1" parent="1">
          <mxGeometry x="1430" y="120" width="30" height="250" as="geometry" />
        </mxCell>
        <mxCell id="ah_-_uCRtWPQr3SFTx1z-48" value="" style="rounded=0;whiteSpace=wrap;html=1;fillColor=#ffff88;strokeColor=none;glass=0;" vertex="1" parent="1">
          <mxGeometry x="1500" y="350" width="160" height="30" as="geometry" />
        </mxCell>
        <mxCell id="ah_-_uCRtWPQr3SFTx1z-49" value="" style="rounded=0;whiteSpace=wrap;html=1;fillColor=#ffff88;strokeColor=none;glass=0;" vertex="1" parent="1">
          <mxGeometry x="1260" width="30" height="290" as="geometry" />
        </mxCell>
        <mxCell id="ah_-_uCRtWPQr3SFTx1z-50" value="" style="rounded=0;whiteSpace=wrap;html=1;fillColor=#ffff88;strokeColor=none;glass=0;" vertex="1" parent="1">
          <mxGeometry x="1110" y="-5" width="540" height="30" as="geometry" />
        </mxCell>
      </root>
    </mxGraphModel>
  </diagram>
</mxfile>
